<svg version="1.1" xmlns="http://www.w3.org/2000/svg" xmlns:xlink="http://www.w3.org/1999/xlink" width="800" height="800"><defs/><g transform="scale(2,2)"><g id="background-a2f450f9"><rect fill="white" stroke="none" x="0" y="0" width="400" height="400" class="dcg-svg-background"/></g><g id="graphpaper-a2f450f9"><g id="axis-a2f450f9"><g id="yaxis-a2f450f9"><title>Im</title><g><path fill="none" stroke="rgb(0,0,0)" class="dcg-svg-axis-line" paint-order="fill stroke markers" d=" M 57 3 L 57 400" stroke-opacity="0.9" stroke-miterlimit="10" stroke-width="1.5" stroke-dasharray=""/><g class="dcg-svg-axis-line"><path fill="rgb(0,0,0)" stroke="rgb(0,0,0)" class="dcg-svg-axis-line" paint-order="stroke fill markers" d=" M 57 1.5 L 60.10582854123025 13.09110991546882 L 53.894171458769755 13.09110991546882 L 57 1.5 L 60.10582854123025 13.09110991546882" stroke-opacity="0.9" stroke-linejoin="round" stroke-miterlimit="10" stroke-width="1.5" stroke-dasharray="" fill-opacity="0.9"/></g></g></g><g id="xaxis-a2f450f9"><title>Re</title><g><path fill="none" stroke="rgb(0,0,0)" class="dcg-svg-axis-line" paint-order="fill stroke markers" d=" M 0 343 L 397 343" stroke-opacity="0.9" stroke-miterlimit="10" stroke-width="1.5" stroke-dasharray=""/><g class="dcg-svg-axis-line"><path fill="rgb(0,0,0)" stroke="rgb(0,0,0)" class="dcg-svg-axis-line" paint-order="stroke fill markers" d=" M 398.5 343 L 386.9088900845312 346.10582854123027 L 386.9088900845312 339.89417145876973 L 398.5 343 L 386.9088900845312 346.10582854123027" stroke-opacity="0.9" stroke-linejoin="round" stroke-miterlimit="10" stroke-width="1.5" stroke-dasharray="" fill-opacity="0.9"/></g></g></g><g><g><path fill="none" stroke="rgb(0,0,0)" class="dcg-svg-tickmark" paint-order="fill stroke markers" d="" stroke-opacity="0.9" stroke-miterlimit="2" stroke-width="1.5" stroke-dasharray=""/></g></g><g class="dcg-svg-axis-label"><text fill="none" stroke="#ffffff" font-family="Times" font-size="20px" font-style="italic" font-weight="normal" text-decoration="normal" x="363.90625" y="357.8571428571429" text-anchor="start" stroke-miterlimit="2" stroke-width="3" stroke-dasharray="">Re</text><text fill="#000000" stroke="none" font-family="Times" font-size="20px" font-style="italic" font-weight="normal" text-decoration="normal" x="363.90625" y="357.8571428571429" text-anchor="start">Re</text></g><g class="dcg-svg-axis-label" transform="translate(30.03934151785714,29)"><text fill="none" stroke="#ffffff" font-family="Times" font-size="20px" font-style="italic" font-weight="normal" text-decoration="normal" x="0" y="0" text-anchor="start" stroke-miterlimit="2" stroke-width="3" stroke-dasharray="">Im</text><text fill="#000000" stroke="none" font-family="Times" font-size="20px" font-style="italic" font-weight="normal" text-decoration="normal" x="0" y="0" text-anchor="start">Im</text></g></g></g><g id="expressions-a2f450f9"><g id="sketch-a2f450f9"><title>式3</title><path fill="#000000" stroke="none" paint-order="stroke fill markers" d="" fill-opacity="0.4"/><g><path fill="none" stroke="#000000" class="dcg-svg-curve" paint-order="fill stroke markers" d=" M 57.14285714285714 342.8571428571429 L 57.14285714285714 342.8571428571429 L 331.42857142857144 114.2857142857143" stroke-linecap="round" stroke-linejoin="round" stroke-miterlimit="10" stroke-width="2.5" stroke-dasharray=""/></g></g><g id="sketch-a2f450f9"><title>式4</title><path fill="#000000" stroke="none" paint-order="stroke fill markers" d="" fill-opacity="0.4"/><g><path fill="none" stroke="#000000" class="dcg-svg-curve" paint-order="fill stroke markers" d=" M 57.14285714285714 114.2857142857143 L 61.54285714285714 114.2857142857143 M 64.34285714285714 114.2857142857143 L 68.74285714285715 114.2857142857143 M 71.54285714285714 114.2857142857143 L 75.94285714285715 114.2857142857143 M 78.74285714285715 114.2857142857143 L 83.14285714285715 114.2857142857143 M 85.94285714285715 114.2857142857143 L 90.34285714285716 114.2857142857143 M 93.14285714285715 114.2857142857143 L 97.54285714285716 114.2857142857143 M 100.34285714285716 114.2857142857143 L 104.74285714285716 114.2857142857143 M 107.54285714285716 114.2857142857143 L 111.94285714285716 114.2857142857143 M 114.74285714285716 114.2857142857143 L 119.14285714285717 114.2857142857143 M 121.94285714285716 114.2857142857143 L 126.34285714285717 114.2857142857143 M 129.14285714285717 114.2857142857143 L 133.54285714285717 114.2857142857143 M 136.34285714285718 114.2857142857143 L 140.7428571428572 114.2857142857143 M 143.5428571428572 114.2857142857143 L 147.9428571428572 114.2857142857143 M 150.74285714285722 114.2857142857143 L 155.14285714285722 114.2857142857143 M 157.94285714285724 114.2857142857143 L 162.34285714285724 114.2857142857143 M 165.14285714285725 114.2857142857143 L 169.54285714285726 114.2857142857143 M 172.34285714285727 114.2857142857143 L 176.74285714285728 114.2857142857143 M 179.5428571428573 114.2857142857143 L 183.9428571428573 114.2857142857143 M 186.7428571428573 114.2857142857143 L 191.1428571428573 114.2857142857143 M 193.94285714285732 114.2857142857143 L 198.34285714285733 114.2857142857143 M 201.14285714285734 114.2857142857143 L 205.54285714285734 114.2857142857143 M 208.34285714285735 114.2857142857143 L 212.74285714285736 114.2857142857143 M 215.54285714285737 114.2857142857143 L 219.94285714285738 114.2857142857143 M 222.7428571428574 114.2857142857143 L 227.1428571428574 114.2857142857143 M 229.9428571428574 114.2857142857143 L 234.3428571428574 114.2857142857143 M 237.14285714285742 114.2857142857143 L 241.54285714285743 114.2857142857143 M 244.34285714285744 114.2857142857143 L 248.74285714285745 114.2857142857143 M 251.54285714285746 114.2857142857143 L 255.94285714285746 114.2857142857143 M 258.7428571428575 114.2857142857143 L 263.14285714285745 114.2857142857143 M 265.94285714285746 114.2857142857143 L 270.34285714285744 114.2857142857143 M 273.14285714285745 114.2857142857143 L 277.54285714285743 114.2857142857143 M 280.34285714285744 114.2857142857143 L 284.7428571428574 114.2857142857143 M 287.54285714285743 114.2857142857143 L 291.9428571428574 114.2857142857143 M 294.7428571428574 114.2857142857143 L 299.1428571428574 114.2857142857143 M 301.9428571428574 114.2857142857143 L 306.3428571428574 114.2857142857143 M 309.1428571428574 114.2857142857143 L 313.5428571428574 114.2857142857143 M 316.3428571428574 114.2857142857143 L 320.7428571428574 114.2857142857143 M 323.54285714285743 114.2857142857143 L 327.9428571428574 114.2857142857143 M 330.7428571428574 114.2857142857143 L 331.42857142857144 114.2857142857143" stroke-linecap="round" stroke-linejoin="round" stroke-miterlimit="10" stroke-dasharray=""/></g></g><g id="sketch-a2f450f9"><title>式5</title><path fill="#000000" stroke="none" paint-order="stroke fill markers" d="" fill-opacity="0.4"/><g><path fill="none" stroke="#000000" class="dcg-svg-curve" paint-order="fill stroke markers" d=" M 331.42857142857144 342.8571428571429 L 331.42857142857144 338.4571428571429 M 331.42857142857144 335.6571428571429 L 331.42857142857144 331.2571428571429 M 331.42857142857144 328.4571428571429 L 331.42857142857144 324.05714285714294 M 331.42857142857144 321.2571428571429 L 331.42857142857144 316.85714285714295 M 331.42857142857144 314.05714285714294 L 331.42857142857144 309.65714285714296 M 331.42857142857144 306.85714285714295 L 331.42857142857144 302.45714285714297 M 331.42857142857144 299.65714285714296 L 331.42857142857144 295.257142857143 M 331.42857142857144 292.45714285714297 L 331.42857142857144 288.057142857143 M 331.42857142857144 285.257142857143 L 331.42857142857144 280.857142857143 M 331.42857142857144 278.057142857143 L 331.42857142857144 273.65714285714296 M 331.42857142857144 270.85714285714295 L 331.42857142857144 266.4571428571429 M 331.42857142857144 263.6571428571429 L 331.42857142857144 259.25714285714287 M 331.42857142857144 256.45714285714286 L 331.42857142857144 252.05714285714285 M 331.42857142857144 249.25714285714284 L 331.42857142857144 244.85714285714283 M 331.42857142857144 242.05714285714282 L 331.42857142857144 237.65714285714282 M 331.42857142857144 234.8571428571428 L 331.42857142857144 230.4571428571428 M 331.42857142857144 227.6571428571428 L 331.42857142857144 223.25714285714278 M 331.42857142857144 220.45714285714277 L 331.42857142857144 216.05714285714276 M 331.42857142857144 213.25714285714275 L 331.42857142857144 208.85714285714275 M 331.42857142857144 206.05714285714274 L 331.42857142857144 201.65714285714273 M 331.42857142857144 198.85714285714272 L 331.42857142857144 194.4571428571427 M 331.42857142857144 191.6571428571427 L 331.42857142857144 187.2571428571427 M 331.42857142857144 184.45714285714268 L 331.42857142857144 180.05714285714268 M 331.42857142857144 177.25714285714267 L 331.42857142857144 172.85714285714266 M 331.42857142857144 170.05714285714265 L 331.42857142857144 165.65714285714265 M 331.42857142857144 162.85714285714263 L 331.42857142857144 158.45714285714263 M 331.42857142857144 155.65714285714262 L 331.42857142857144 151.2571428571426 M 331.42857142857144 148.45714285714263 L 331.42857142857144 144.05714285714262 M 331.42857142857144 141.25714285714264 L 331.42857142857144 136.85714285714263 M 331.42857142857144 134.05714285714262 L 331.42857142857144 129.65714285714262 M 331.42857142857144 126.85714285714262 L 331.42857142857144 122.45714285714263 M 331.42857142857144 119.65714285714263 L 331.42857142857144 115.25714285714265" stroke-linecap="round" stroke-linejoin="round" stroke-miterlimit="10" stroke-dasharray=""/></g></g><g id="sketch-a2f450f9"><title>"z"</title><path fill="#c74440" stroke="none" class="dcg-svg-point" paint-order="stroke fill markers" d=" M 336.11607142857144 114.2857142857143 A 4.6875 4.6875 0 1 1 336.1160690848216 114.28102678649556 Z"/></g><g id="sketch-a2f450f9"><title>"O"</title></g><g id="sketch-a2f450f9"><title>"a"</title></g><g id="sketch-a2f450f9"><title>"b"</title></g><g id="sketch-a2f450f9"><title>"r"</title></g><g id="sketch-a2f450f9"><title>theta</title></g><g id="sketch-a2f450f9"><title>式12</title><g><path fill="none" stroke="#000000" class="dcg-svg-curve" paint-order="fill stroke markers" d=" M 102.85714285714286 342.8571428571429 L 102.85714285714286 342.8571428571429 L 102.76763180563174 339.99779759320785 L 102.4994491860884 337.1496498355757 L 101.99935688229732 334.04292993181883 L 101.28672701712861 330.97797323588003 L 100.36493614948874 327.96930202269533 L 99.2383518779252 325.03117187721574 L 97.78208258438578 321.9227387844219 L 96.09667364136797 318.93234194746566 L 94.19162803546259 316.0768423787207 L 92.26154421016575 313.59157030105234" stroke-linecap="round" stroke-linejoin="round" stroke-miterlimit="10" stroke-width="2.5" stroke-dasharray=""/></g></g></g><g id="labels-a2f450f9"><g transform="rotate(0,0,0) translate(337,68)"><g class="dcg-svg-label"><text fill="none" stroke="#FFF" font-family="&quot;Times New Roman&quot;, Symbola, serif" font-size="35.42px" font-style="italic" font-weight="400" text-decoration="normal" x="1.9907407760620117" y="29.470538980712888" text-anchor="start" stroke-linecap="round" stroke-linejoin="round" stroke-miterlimit="2" stroke-width="3" stroke-dasharray="">z</text><text fill="rgb(199, 68, 64)" stroke="none" font-family="&quot;Times New Roman&quot;, Symbola, serif" font-size="35.42px" font-style="italic" font-weight="400" text-decoration="normal" x="1.9907407760620117" y="29.470538980712888" text-anchor="start">z</text></g></g><g transform="rotate(0,0,0) translate(29.5,343.5)"><g class="dcg-svg-label"><text fill="none" stroke="#FFF" font-family="&quot;Times New Roman&quot;, Symbola, serif" font-size="26.565px" font-style="italic" font-weight="400" text-decoration="normal" x="1.9907407760620117" y="22.600588773899077" text-anchor="start" stroke-linecap="round" stroke-linejoin="round" stroke-miterlimit="2" stroke-width="3" stroke-dasharray="">O</text><text fill="rgb(0, 0, 0)" stroke="none" font-family="&quot;Times New Roman&quot;, Symbola, serif" font-size="26.565px" font-style="italic" font-weight="400" text-decoration="normal" x="1.9907407760620117" y="22.600588773899077" text-anchor="start">O</text></g></g><g transform="rotate(0,0,0) translate(320,339)"><g class="dcg-svg-label"><text fill="none" stroke="#FFF" font-family="&quot;Times New Roman&quot;, Symbola, serif" font-size="35.42px" font-style="italic" font-weight="400" text-decoration="normal" x="1.9907407760620117" y="29.470538980712888" text-anchor="start" stroke-linecap="round" stroke-linejoin="round" stroke-miterlimit="2" stroke-width="3" stroke-dasharray="">a</text><text fill="rgb(0, 0, 0)" stroke="none" font-family="&quot;Times New Roman&quot;, Symbola, serif" font-size="35.42px" font-style="italic" font-weight="400" text-decoration="normal" x="1.9907407760620117" y="29.470538980712888" text-anchor="start">a</text></g></g><g transform="rotate(0,0,0) translate(30,94)"><g class="dcg-svg-label"><text fill="none" stroke="#FFF" font-family="&quot;Times New Roman&quot;, Symbola, serif" font-size="35.42px" font-style="italic" font-weight="400" text-decoration="normal" x="1.9907407760620117" y="29.470538980712888" text-anchor="start" stroke-linecap="round" stroke-linejoin="round" stroke-miterlimit="2" stroke-width="3" stroke-dasharray="">b</text><text fill="rgb(0, 0, 0)" stroke="none" font-family="&quot;Times New Roman&quot;, Symbola, serif" font-size="35.42px" font-style="italic" font-weight="400" text-decoration="normal" x="1.9907407760620117" y="29.470538980712888" text-anchor="start">b</text></g></g><g transform="rotate(0,0,0) translate(174,197)"><g class="dcg-svg-label"><text fill="none" stroke="#FFF" font-family="&quot;Times New Roman&quot;, Symbola, serif" font-size="35.42px" font-style="italic" font-weight="400" text-decoration="normal" x="1.9907407760620117" y="29.470538980712888" text-anchor="start" stroke-linecap="round" stroke-linejoin="round" stroke-miterlimit="2" stroke-width="3" stroke-dasharray="">r</text><text fill="rgb(0, 0, 0)" stroke="none" font-family="&quot;Times New Roman&quot;, Symbola, serif" font-size="35.42px" font-style="italic" font-weight="400" text-decoration="normal" x="1.9907407760620117" y="29.470538980712888" text-anchor="start">r</text></g></g><g transform="rotate(0,0,0) translate(115.5,300)"><g class="dcg-svg-label"><text fill="none" stroke="#FFF" font-family="&quot;Times New Roman&quot;, Symbola, serif" font-size="35.42px" font-style="italic" font-weight="400" text-decoration="normal" x="1.9907407760620117" y="29.470538980712888" text-anchor="start" stroke-linecap="round" stroke-linejoin="round" stroke-miterlimit="2" stroke-width="3" stroke-dasharray="">θ</text><text fill="rgb(0, 0, 0)" stroke="none" font-family="&quot;Times New Roman&quot;, Symbola, serif" font-size="35.42px" font-style="italic" font-weight="400" text-decoration="normal" x="1.9907407760620117" y="29.470538980712888" text-anchor="start">θ</text></g></g></g><g id="labels-a2f450f9"/></g></svg>