<svg version="1.1" xmlns="http://www.w3.org/2000/svg" xmlns:xlink="http://www.w3.org/1999/xlink" width="1200" height="800"><defs/><g transform="scale(2,2)"><g id="background-638e262c"><rect fill="white" stroke="none" x="0" y="0" width="600" height="400" class="dcg-svg-background"/></g><g id="graphpaper-638e262c"><g id="axis-638e262c"><g id="yaxis-638e262c"><title>Y axis</title><g><path fill="none" stroke="rgb(0,0,0)" class="dcg-svg-axis-line" paint-order="fill stroke markers" d=" M 33 3 L 33 400" stroke-opacity="0.9" stroke-miterlimit="10" stroke-width="1.5" stroke-dasharray=""/><g class="dcg-svg-axis-line"><path fill="rgb(0,0,0)" stroke="rgb(0,0,0)" class="dcg-svg-axis-line" paint-order="stroke fill markers" d=" M 33 1.5 L 36.10582854123025 13.09110991546882 L 29.89417145876975 13.09110991546882 L 33 1.5 L 36.10582854123025 13.09110991546882" stroke-opacity="0.9" stroke-linejoin="round" stroke-miterlimit="10" stroke-width="1.5" stroke-dasharray="" fill-opacity="0.9"/></g></g></g><g id="xaxis-638e262c"><title>x</title><g><path fill="none" stroke="rgb(0,0,0)" class="dcg-svg-axis-line" paint-order="fill stroke markers" d=" M 0 350 L 597 350" stroke-opacity="0.9" stroke-miterlimit="10" stroke-width="1.5" stroke-dasharray=""/><g class="dcg-svg-axis-line"><path fill="rgb(0,0,0)" stroke="rgb(0,0,0)" class="dcg-svg-axis-line" paint-order="stroke fill markers" d=" M 598.5 350 L 586.9088900845312 353.10582854123027 L 586.9088900845312 346.89417145876973 L 598.5 350 L 586.9088900845312 353.10582854123027" stroke-opacity="0.9" stroke-linejoin="round" stroke-miterlimit="10" stroke-width="1.5" stroke-dasharray="" fill-opacity="0.9"/></g></g></g><g><g class="dcg-svg-axis-value"><text fill="none" stroke="#ffffff" font-family="Arial" font-size="14px" font-style="normal" font-weight="normal" text-decoration="normal" x="24.440266927083314" y="365.808" text-anchor="middle" stroke-miterlimit="2" stroke-width="3" stroke-dasharray="">0</text><text fill="#000000" stroke="none" font-family="Arial" font-size="14px" font-style="normal" font-weight="normal" text-decoration="normal" x="24.440266927083314" y="365.808" text-anchor="middle">0</text></g><g><path fill="none" stroke="rgb(0,0,0)" class="dcg-svg-tickmark" paint-order="fill stroke markers" d=" M 100 347 L 100 353 M 167 347 L 167 353 M 233 347 L 233 353 M 300 347 L 300 353 M 367 347 L 367 353 M 433 347 L 433 353 M 500 347 L 500 353 M 567 347 L 567 353 M 30 250 L 36 250 M 30 150 L 36 150 M 30 50 L 36 50" stroke-opacity="0.9" stroke-miterlimit="2" stroke-width="1.5" stroke-dasharray=""/></g><g class="dcg-svg-axis-value"><text fill="none" stroke="#ffffff" font-family="Arial" font-size="14px" font-style="normal" font-weight="normal" text-decoration="normal" x="99.99999999999999" y="365.808" text-anchor="middle" stroke-miterlimit="2" stroke-width="3" stroke-dasharray="">1</text><text fill="#000000" stroke="none" font-family="Arial" font-size="14px" font-style="normal" font-weight="normal" text-decoration="normal" x="99.99999999999999" y="365.808" text-anchor="middle">1</text></g><g class="dcg-svg-axis-value"><text fill="none" stroke="#ffffff" font-family="Arial" font-size="14px" font-style="normal" font-weight="normal" text-decoration="normal" x="166.66666666666666" y="365.808" text-anchor="middle" stroke-miterlimit="2" stroke-width="3" stroke-dasharray="">2</text><text fill="#000000" stroke="none" font-family="Arial" font-size="14px" font-style="normal" font-weight="normal" text-decoration="normal" x="166.66666666666666" y="365.808" text-anchor="middle">2</text></g><g class="dcg-svg-axis-value"><text fill="none" stroke="#ffffff" font-family="Arial" font-size="14px" font-style="normal" font-weight="normal" text-decoration="normal" x="233.33333333333331" y="365.808" text-anchor="middle" stroke-miterlimit="2" stroke-width="3" stroke-dasharray="">3</text><text fill="#000000" stroke="none" font-family="Arial" font-size="14px" font-style="normal" font-weight="normal" text-decoration="normal" x="233.33333333333331" y="365.808" text-anchor="middle">3</text></g><g class="dcg-svg-axis-value"><text fill="none" stroke="#ffffff" font-family="Arial" font-size="14px" font-style="normal" font-weight="normal" text-decoration="normal" x="300" y="365.808" text-anchor="middle" stroke-miterlimit="2" stroke-width="3" stroke-dasharray="">4</text><text fill="#000000" stroke="none" font-family="Arial" font-size="14px" font-style="normal" font-weight="normal" text-decoration="normal" x="300" y="365.808" text-anchor="middle">4</text></g><g class="dcg-svg-axis-value"><text fill="none" stroke="#ffffff" font-family="Arial" font-size="14px" font-style="normal" font-weight="normal" text-decoration="normal" x="366.6666666666667" y="365.808" text-anchor="middle" stroke-miterlimit="2" stroke-width="3" stroke-dasharray="">5</text><text fill="#000000" stroke="none" font-family="Arial" font-size="14px" font-style="normal" font-weight="normal" text-decoration="normal" x="366.6666666666667" y="365.808" text-anchor="middle">5</text></g><g class="dcg-svg-axis-value"><text fill="none" stroke="#ffffff" font-family="Arial" font-size="14px" font-style="normal" font-weight="normal" text-decoration="normal" x="433.3333333333333" y="365.808" text-anchor="middle" stroke-miterlimit="2" stroke-width="3" stroke-dasharray="">6</text><text fill="#000000" stroke="none" font-family="Arial" font-size="14px" font-style="normal" font-weight="normal" text-decoration="normal" x="433.3333333333333" y="365.808" text-anchor="middle">6</text></g><g class="dcg-svg-axis-value"><text fill="none" stroke="#ffffff" font-family="Arial" font-size="14px" font-style="normal" font-weight="normal" text-decoration="normal" x="500" y="365.808" text-anchor="middle" stroke-miterlimit="2" stroke-width="3" stroke-dasharray="">7</text><text fill="#000000" stroke="none" font-family="Arial" font-size="14px" font-style="normal" font-weight="normal" text-decoration="normal" x="500" y="365.808" text-anchor="middle">7</text></g><g class="dcg-svg-axis-value"><text fill="none" stroke="#ffffff" font-family="Arial" font-size="14px" font-style="normal" font-weight="normal" text-decoration="normal" x="566.6666666666667" y="365.808" text-anchor="middle" stroke-miterlimit="2" stroke-width="3" stroke-dasharray="">8</text><text fill="#000000" stroke="none" font-family="Arial" font-size="14px" font-style="normal" font-weight="normal" text-decoration="normal" x="566.6666666666667" y="365.808" text-anchor="middle">8</text></g><g class="dcg-svg-axis-value"><text fill="none" stroke="#ffffff" font-family="Arial" font-size="14px" font-style="normal" font-weight="normal" text-decoration="normal" x="18.602376302083314" y="253.808" text-anchor="middle" stroke-miterlimit="2" stroke-width="3" stroke-dasharray="">0.1</text><text fill="#000000" stroke="none" font-family="Arial" font-size="14px" font-style="normal" font-weight="normal" text-decoration="normal" x="18.602376302083314" y="253.808" text-anchor="middle">0.1</text></g><g class="dcg-svg-axis-value"><text fill="none" stroke="#ffffff" font-family="Arial" font-size="14px" font-style="normal" font-weight="normal" text-decoration="normal" x="18.602376302083314" y="153.80799999999996" text-anchor="middle" stroke-miterlimit="2" stroke-width="3" stroke-dasharray="">0.2</text><text fill="#000000" stroke="none" font-family="Arial" font-size="14px" font-style="normal" font-weight="normal" text-decoration="normal" x="18.602376302083314" y="153.80799999999996" text-anchor="middle">0.2</text></g><g class="dcg-svg-axis-value"><text fill="none" stroke="#ffffff" font-family="Arial" font-size="14px" font-style="normal" font-weight="normal" text-decoration="normal" x="18.602376302083314" y="53.808" text-anchor="middle" stroke-miterlimit="2" stroke-width="3" stroke-dasharray="">0.3</text><text fill="#000000" stroke="none" font-family="Arial" font-size="14px" font-style="normal" font-weight="normal" text-decoration="normal" x="18.602376302083314" y="53.808" text-anchor="middle">0.3</text></g></g><g class="dcg-svg-axis-label"><text fill="none" stroke="#ffffff" font-family="Times" font-size="20px" font-style="italic" font-weight="normal" text-decoration="normal" x="576.123046875" y="383" text-anchor="start" stroke-miterlimit="2" stroke-width="3" stroke-dasharray="">x</text><text fill="#000000" stroke="none" font-family="Times" font-size="20px" font-style="italic" font-weight="normal" text-decoration="normal" x="576.123046875" y="383" text-anchor="start">x</text></g></g></g><g id="expressions-638e262c"><g id="sketch-638e262c"><title>式2</title><path fill="#000000" stroke="none" paint-order="stroke fill markers" d="" fill-opacity="0.4"/><g><path fill="none" stroke="#000000" class="dcg-svg-curve" paint-order="fill stroke markers" d=" M 33.333333333333314 214.66471676338728 L 34.940877918216266 210.5688895688375 M 35.963860835869056 207.96245408139674 L 37.57140542075201 203.86662688684697 M 38.5943883384048 201.2601913994062 L 40.20193292328775 197.16436420485644 M 41.22491584094054 194.55792871741568 L 42.83246042582349 190.46210152286588 M 43.85544334347628 187.85566603542512 L 45.46298792835923 183.75983884087532 M 46.485970846012016 181.15340335343456 L 46.80796071336261 180.33301251173353 M 46.80796071336261 180.33301251173353 L 48.14216350043323 177.07708911639605 M 49.203858223531334 174.486181106654 L 50.872235645542645 170.41475423420215 M 51.93393036864075 167.82384622446008 L 53.60230779065206 163.75241935200825 M 54.668128496728436 161.16324598079984 L 56.41014037623368 157.1227763779365 M 57.518693390464286 154.55156844884166 L 59.26070526996953 150.51109884597832 M 60.369258284200136 147.93989091688348 L 61.16136813991555 146.10264983270923 M 61.16136813991555 146.10264983270923 L 62.15883625253486 143.92054371139602 M 63.322899761349646 141.37398600589515 L 65.1521424180586 137.3722524686795 M 66.3162059268734 134.82569476317866 L 67.01990178340655 133.28625804669906 M 67.01990178340655 133.28625804669906 L 68.20632511644534 130.852709011316 M 69.43334837996595 128.33588285308034 L 71.36152779406976 124.38087031871001 M 72.60561616295182 121.87266493743826 L 74.64497136035958 117.97381505846036 M 75.94274284961905 115.49272877183806 L 77.27233565951579 112.95080631882689 M 77.27233565951579 112.95080631882689 L 78.02555835181465 111.6175133045678 M 79.40279523042223 109.17964157287163 L 81.56702461109126 105.34870028020622 M 83.00788740728086 102.94833720971182 L 85.31190080156696 99.19980119161752 M 86.79670950535288 96.82635372007142 L 89.2547155263708 93.17694193176366 M 90.82378741293984 90.85804780013507 L 93.44874798856213 87.3268182725585 M 95.1379101652067 85.09437433372183 L 97.94415851119894 81.70542608675555 M 99.79519931063058 79.60622152171901 L 102.75695700870163 76.43578961223636 M 102.75695700870163 76.43578961223636 L 102.80179946301303 76.39388109151601 M 104.84748939007898 74.48203572059792 L 106.56500387697078 72.87689406261535 M 106.56500387697078 72.87689406261535 L 108.16456279959883 71.59604808606754 M 110.35019616964604 69.84590330013235 L 110.37305074523994 69.82760251059528 M 110.37305074523994 69.82760251059528 L 113.88817093133451 67.46471023993126 M 113.88817093133451 67.46471023993126 L 114.00656734340629 67.39935569719609 M 116.45790120202201 66.04622513675332 L 117.25682777634184 65.60521953506327 M 117.25682777634184 65.60521953506327 L 120.33255793917462 64.25069568526618 M 120.33255793917462 64.25069568526618 L 120.45265377043003 64.2104603268865 M 123.10761485433248 63.32097640743461 L 123.40828810200739 63.22024272043717 M 123.40828810200739 63.22024272043717 L 126.33755492375289 62.536169536849 M 126.33755492375289 62.536169536849 L 127.40256254274041 62.39127665998572 M 130.1845089434938 62.09745541305987 L 131.9791633618786 62.018856294983664 M 131.9791633618786 62.018856294983664 L 134.58010338845352 62.13707360811496 M 137.35654688429673 62.492266601656745 L 137.76169552856032 62.54743813077329 M 137.76169552856032 62.54743813077329 L 140.69096235030582 63.20900378015159 M 140.69096235030582 63.20900378015159 L 141.63331722155377 63.50606583607801 M 144.28845014075145 64.39045191808466 L 146.98888601705866 65.48703901975864 M 146.98888601705866 65.48703901975864 L 148.3175916634359 66.15109684502428 M 150.80965232277214 67.42582196995227 L 154.16558973033514 69.42418405840323 M 154.16558973033514 69.42418405840323 L 154.57189549413815 69.70540791261828 M 156.87420533166875 71.2989478123415 L 158.12009993969156 72.16129167951789 M 158.12009993969156 72.16129167951789 L 160.38136646197427 73.9525571242654 M 162.57309919556752 75.69483289758558 L 165.8513637555763 78.62962104574733 M 167.90815819402886 80.5282946630232 L 171.02327691607854 83.63571084814158 M 172.98020810961054 85.63747216356519 L 175.94653039869053 88.88723093573695 M 177.83419003719595 90.9552592453008 L 177.89265098647365 91.01930622476897 M 177.89265098647365 91.01930622476897 L 180.6694956261345 94.31984421801708 M 182.47210480730143 96.46241280267725 L 183.75118462996468 97.98271807680047 M 183.75118462996468 97.98271807680047 L 185.2395332896477 99.88228477095794 M 186.9664418952203 102.08632348840355 L 189.68015541826298 105.54981290153236 M 191.36092542211026 107.78891616956797 L 193.97128959778604 111.33094932445918 M 195.63243043685245 113.58497042302632 L 197.37227535108124 115.94578598584789 M 197.37227535108124 115.94578598584789 L 198.21382383874112 117.147815489347 M 199.819682115309 119.44155025944976 L 202.34317369277287 123.04599061246839 M 203.94903196934075 125.33972538257115 L 205.7206857930559 127.87027495555466 M 205.7206857930559 127.87027495555466 L 206.4520855855719 128.95818844426316 M 208.01429020277234 131.28187446737334 L 210.46918317265877 134.93338107511792 M 212.03138778985922 137.2570670982281 L 214.48628075974565 140.90857370597266 M 216.0484853769461 143.23225972908284 L 216.26604635133972 143.55586867877258 M 216.26604635133972 143.55586867877258 L 218.48760741155922 146.8943149845051 M 220.03880006095554 149.22536654216287 L 222.4763885100069 152.8884475613394 M 224.0275811594032 155.2194991189972 L 226.46516960845457 158.88258013817372 M 228.0163622578509 161.2136316958315 L 230.45395070690225 164.87671271500804 M 232.00514335629856 167.20776427266583 L 234.44273180534992 170.87084529184236 M 235.99392445474624 173.20189684950014 L 238.4315129037976 176.86497786867668 M 239.9827055531939 179.19602942633446 L 242.42029400224527 182.859110445511 M 243.97148665164158 185.19016200316878 L 246.40907510069295 188.8532430223453 M 247.96026775008926 191.1842945800031 L 250.39785619914062 194.84737559917963 M 251.94904884853696 197.17842715683742 L 254.38663729758832 200.84150817601397 M 255.93782994698466 203.17255973367176 L 257.12931851468943 204.96306672373555 M 257.12931851468943 204.96306672373555 L 258.43374855724295 206.79548607336147 M 260.0575528155935 209.07655155478955 L 262.6092452215729 212.66108302560505 M 264.23304947992347 214.94214850703312 L 266.78474188590286 218.52667997784863 M 268.4583564200746 220.7714490330144 L 271.0888636524035 224.2985486489404 M 272.7628228002492 226.54306658634783 L 275.3933300325781 230.07016620227384 M 277.11575394742096 232.2776031838353 L 279.8321925670242 235.73895569779975 M 281.56083532495353 237.94163457032258 L 283.93210993366074 240.96317066133417 M 283.93210993366074 240.96317066133417 L 284.28901452430944 241.39351446980683 M 286.0764561938366 243.54875280420003 L 288.88529310309355 246.93555590110364 M 290.67273477262074 249.09079423549684 L 291.98759369346084 250.67620784581237 M 291.98759369346084 250.67620784581237 L 293.53375872877416 252.43300834553867 M 295.3836386021809 254.53489903107985 L 298.2905926889629 257.83787010835886 M 300.14909386632536 259.9319283308753 L 303.1588196009529 263.14153126618066 M 305.07409961389766 265.184005861375 L 307.6591711897993 267.94075316978547 M 307.6591711897993 267.94075316978547 L 308.0987215409441 268.3791649193338 M 310.081186530234 270.356494574763 L 313.19648865626095 273.4637268904375 M 315.17895364555085 275.44105654586673 L 315.27526492633757 275.5371183440225 M 315.27526492633757 275.5371183440225 L 318.3985211930668 278.44000034326996 M 320.4494536134592 280.34622074159313 L 322.89135866287586 282.61582707756196 M 322.89135866287586 282.61582707756196 L 323.69899083677046 283.3119446208854 M 325.81989078646586 285.1399991614782 L 329.1527335645586 288.0126562966955 M 331.29399254637815 289.81613713700176 L 334.73632621864516 292.5566368886487 M 336.926902191906 294.3005912760604 L 338.27000947703976 295.36986158271264 M 338.27000947703976 295.36986158271264 L 340.4333980571203 296.9571577535108 M 342.6909282946395 298.61352644033343 L 345.7396398724908 300.85039144828824 M 345.7396398724908 300.85039144828824 L 346.25246602579205 301.1965166886271 M 348.57331033329933 302.76293990740004 L 352.2203513879537 305.2244621083289 M 354.57912279872295 306.73224803580734 L 358.3197263219361 309.04911775206796 M 360.70746162951616 310.51108656857645 L 364.5356006999244 312.68026873188455 M 366.9716891992751 314.06065738126244 L 367.70914103558204 314.4785281378348 M 367.70914103558204 314.4785281378348 L 370.86495317467995 316.10956736640094 M 373.3523733100283 317.39515714166504 L 375.03230808994573 318.2634089281168 M 375.03230808994573 318.2634089281168 L 377.3029373762657 319.33069988780903 M 379.83696284213005 320.52179809465474 L 382.3554751443095 321.705604464186 M 382.3554751443095 321.705604464186 L 383.8433166857794 322.3392242246299 M 386.4194403321232 323.436305333185 L 389.8251055397605 324.88665922697606 M 389.8251055397605 324.88665922697606 L 390.47706159294296 325.1370004021081 M 393.09098121353423 326.14070564623495 L 397.19856918874916 327.7179567441487 M 399.8427587587028 328.6385330265152 L 404.00278085395195 330.0717867259834 M 406.66602760341834 330.93486988802067 L 410.87195530237074 332.22722130740505 M 413.55118957734595 333.04018237899686 L 417.7968887702234 334.19518816409044 M 420.49869734750905 334.9301918455136 L 421.6076505556992 335.2318729851022 M 421.6076505556992 335.2318729851022 L 424.76932005693664 335.98764033556364 M 427.4925962860882 336.6386138985736 L 430.24898767984837 337.2975033301481 M 430.24898767984837 337.2975033301481 L 431.7820716844984 337.61665642247306 M 434.5233023015249 338.18731805976506 L 438.830950413995 339.084072061224 M 441.58433984079585 339.59194702100206 L 445.9153443248745 340.3680914398382 M 448.67143808747005 340.86200152455217 L 448.9962953390196 340.92021807538595 M 448.9962953390196 340.92021807538595 L 453.0199118452822 341.5327099389125 M 455.7880238771972 341.95408361958977 L 459.24872921512883 342.4808867724864 M 459.24872921512883 342.4808867724864 L 460.14095006684045 342.59452224450234 M 462.9185129817398 342.94827958191837 L 467.2832547051531 343.50418396928643 M 470.0608176200525 343.85794130670246 L 470.2334797966744 343.8799319919707 M 470.2334797966744 343.8799319919707 L 474.4364826245432 344.3196614506652 M 477.22128302148246 344.6110147571628 L 481.5973979309584 345.0688556673733 M 484.3866115599343 345.31340449294555 L 488.7711777702805 345.68161523028266 M 491.56135626777353 345.91593115404265 L 495.1322477815112 346.21581044292685 M 495.1322477815112 346.21581044292685 L 495.9470439941448 346.26912864457165 M 498.7410682913299 346.4519625220099 L 503.13167790119223 346.7392729008415 M 505.9257021983774 346.9221067782798 L 509.6321185491514 347.16464528214874 M 509.6321185491514 347.16464528214874 L 510.3169507718684 347.19825723386447 M 513.1135843901476 347.3355175890669 L 517.5082943617293 347.55121243295645 M 520.3049279800085 347.6884727881589 L 524.6996379515903 347.9041676320484 M 527.497136735805 348.0208375472913 L 531.8944504604439 348.1745646012002 M 534.6927410124867 348.2723909082331 L 539.0900547371255 348.426117962142 M 541.8883452891683 348.5239442691749 L 545.076247092272 348.6353911167346 M 545.076247092272 348.6353911167346 L 546.286074218373 348.66337569731616 M 549.08532545469 348.7281253380712 L 553.4841488260452 348.82987477354345 M 556.2834000623621 348.8946244142985 L 560.6822234337174 348.9963738497708 M 563.4814746700343 349.06112349052586 L 567.8802980413896 349.16287292599816 M 570.68002872604 349.2015664663498 L 575.0796176119059 349.26171324818455 M 577.8793559938206 349.2999884729885 L 582.2789448796865 349.36013525482326 M 585.0786832616012 349.3984104796272 L 589.4782721474671 349.458557261462 M 592.2780105293817 349.49683248626593 L 596.6775994152476 349.5569792681007 M 599.4774657265866 349.58425837456684 L 600 349.58927324162744" stroke-linecap="round" stroke-linejoin="round" stroke-miterlimit="10" stroke-dasharray=""/></g></g><g id="sketch-638e262c"><title>式3</title><path fill="#2d70b3" stroke="none" class="dcg-svg-point" paint-order="stroke fill markers" d=" M 38.020833333333314 214.66471676338728 A 4.6875 4.6875 0 1 1 38.02083098958351 214.66002926416851 Z"/><path fill="#2d70b3" stroke="none" class="dcg-svg-point" paint-order="stroke fill markers" d=" M 104.68749999999999 79.32943352677455 A 4.6875 4.6875 0 1 1 104.68749765625019 79.3247460275558 Z"/><path fill="#2d70b3" stroke="none" class="dcg-svg-point" paint-order="stroke fill markers" d=" M 171.35416666666666 79.32943352677455 A 4.6875 4.6875 0 1 1 171.35416432291686 79.3247460275558 Z"/><path fill="#2d70b3" stroke="none" class="dcg-svg-point" paint-order="stroke fill markers" d=" M 238.02083333333331 169.5529556845164 A 4.6875 4.6875 0 1 1 238.02083098958352 169.54826818529764 Z"/><path fill="#2d70b3" stroke="none" class="dcg-svg-point" paint-order="stroke fill markers" d=" M 304.6875 259.7764778422582 A 4.6875 4.6875 0 1 1 304.6874976562502 259.77179034303947 Z"/><path fill="#2d70b3" stroke="none" class="dcg-svg-point" paint-order="stroke fill markers" d=" M 371.3541666666667 313.9105911369033 A 4.6875 4.6875 0 1 1 371.35416432291686 313.90590363768456 Z"/><path fill="#2d70b3" stroke="none" class="dcg-svg-point" paint-order="stroke fill markers" d=" M 438.0208333333333 337.97019704563445 A 4.6875 4.6875 0 1 1 438.0208309895835 337.9655095464157 Z"/><path fill="#2d70b3" stroke="none" class="dcg-svg-point" paint-order="stroke fill markers" d=" M 504.6875 346.56291344160985 A 4.6875 4.6875 0 1 1 504.6874976562502 346.5582259423911 Z"/><path fill="#2d70b3" stroke="none" class="dcg-svg-point" paint-order="stroke fill markers" d=" M 571.3541666666667 349.1407283604025 A 4.6875 4.6875 0 1 1 571.354164322917 349.13604086118374 Z"/></g><g id="sketch-638e262c"><title>式5</title><path fill="#2d70b3" stroke="none" paint-order="stroke fill markers" d="" fill-opacity="0.4"/><g><path fill="none" stroke="#2d70b3" class="dcg-svg-curve" paint-order="fill stroke markers" d=" M 33.333333333333314 350 L 33.333333333333314 350 L 33.333333333333314 214.66471676338728" stroke-linecap="round" stroke-linejoin="round" stroke-miterlimit="10" stroke-width="3" stroke-dasharray=""/></g><path fill="#2d70b3" stroke="none" paint-order="stroke fill markers" d="" fill-opacity="0.4"/><g><path fill="none" stroke="#2d70b3" class="dcg-svg-curve" paint-order="fill stroke markers" d=" M 99.99999999999999 350 L 99.99999999999999 350 L 99.99999999999999 79.32943352677455" stroke-linecap="round" stroke-linejoin="round" stroke-miterlimit="10" stroke-width="3" stroke-dasharray=""/></g><path fill="#2d70b3" stroke="none" paint-order="stroke fill markers" d="" fill-opacity="0.4"/><g><path fill="none" stroke="#2d70b3" class="dcg-svg-curve" paint-order="fill stroke markers" d=" M 166.66666666666666 350 L 166.66666666666666 350 L 166.66666666666666 79.32943352677455" stroke-linecap="round" stroke-linejoin="round" stroke-miterlimit="10" stroke-width="3" stroke-dasharray=""/></g><path fill="#2d70b3" stroke="none" paint-order="stroke fill markers" d="" fill-opacity="0.4"/><g><path fill="none" stroke="#2d70b3" class="dcg-svg-curve" paint-order="fill stroke markers" d=" M 233.33333333333331 350 L 233.33333333333331 350 L 233.33333333333331 169.5529556845164" stroke-linecap="round" stroke-linejoin="round" stroke-miterlimit="10" stroke-width="3" stroke-dasharray=""/></g><path fill="#2d70b3" stroke="none" paint-order="stroke fill markers" d="" fill-opacity="0.4"/><g><path fill="none" stroke="#2d70b3" class="dcg-svg-curve" paint-order="fill stroke markers" d=" M 300 350 L 300 350 L 300 259.7764778422582" stroke-linecap="round" stroke-linejoin="round" stroke-miterlimit="10" stroke-width="3" stroke-dasharray=""/></g><path fill="#2d70b3" stroke="none" paint-order="stroke fill markers" d="" fill-opacity="0.4"/><g><path fill="none" stroke="#2d70b3" class="dcg-svg-curve" paint-order="fill stroke markers" d=" M 366.6666666666667 350 L 366.6666666666667 350 L 366.6666666666667 313.9105911369033" stroke-linecap="round" stroke-linejoin="round" stroke-miterlimit="10" stroke-width="3" stroke-dasharray=""/></g><path fill="#2d70b3" stroke="none" paint-order="stroke fill markers" d="" fill-opacity="0.4"/><g><path fill="none" stroke="#2d70b3" class="dcg-svg-curve" paint-order="fill stroke markers" d=" M 433.3333333333333 350 L 433.3333333333333 350 L 433.3333333333333 337.97019704563445" stroke-linecap="round" stroke-linejoin="round" stroke-miterlimit="10" stroke-width="3" stroke-dasharray=""/></g><path fill="#2d70b3" stroke="none" paint-order="stroke fill markers" d="" fill-opacity="0.4"/><g><path fill="none" stroke="#2d70b3" class="dcg-svg-curve" paint-order="fill stroke markers" d=" M 500 350 L 500 350 L 500 346.56291344160985" stroke-linecap="round" stroke-linejoin="round" stroke-miterlimit="10" stroke-width="3" stroke-dasharray=""/></g><path fill="#2d70b3" stroke="none" paint-order="stroke fill markers" d="" fill-opacity="0.4"/><g><path fill="none" stroke="#2d70b3" class="dcg-svg-curve" paint-order="fill stroke markers" d=" M 566.6666666666667 350 L 566.6666666666667 350 L 566.6666666666667 349.1407283604025" stroke-linecap="round" stroke-linejoin="round" stroke-miterlimit="10" stroke-width="3" stroke-dasharray=""/></g><path fill="#2d70b3" stroke="none" paint-order="stroke fill markers" d="" fill-opacity="0.4"/><path fill="#2d70b3" stroke="none" paint-order="stroke fill markers" d="" fill-opacity="0.4"/></g></g><g id="labels-638e262c"/><g id="labels-638e262c"/></g></svg>